<svg class="gridItem__media" version="1.1" id="Layer_1" xmlns="http://www.w3.org/2000/svg" xmlns:xlink="http://www.w3.org/1999/xlink" x="0px" y="0px" width="1600" height="1200" viewBox="0 0 1600 1200" style="enable-background:new 0 0 1600 1200;" xml:space="preserve" fill="none">      
<path d="M215.29 1080.8L168.41 506.15C167.214 491.504 171.285 476.912 179.89 465L413.8 141.29C420.05 132.64 428.44 125.761 438.148 121.328C447.856 116.895 458.549 115.059 469.18 116L1270 186.59C1282.67 187.71 1294.69 192.723 1304.4 200.943C1314.12 209.162 1321.05 220.185 1324.25 232.5L1434.25 655.95C1436.95 666.363 1436.88 677.301 1434.05 687.68L1326.39 1082.23L215.29 1080.8Z" fill="#F4F4F4"/>
<path d="M204.5 943.01L215.79 1081.81L1326.87 1083.24L1365.5 943.01H204.5Z" fill="#F7F7F7"/>
<path opacity="0.05" d="M1434 655.07L1324.21 232.5C1321.01 220.191 1314.08 209.172 1304.38 200.953C1294.68 192.734 1282.67 187.717 1270 186.59L867.449 151.1C867.449 151.1 822.999 249.51 866.999 329.51C866.999 329.51 751.689 322.04 758.849 365.77C758.849 365.77 760.429 377.33 739.469 381.9C733.588 383.133 727.557 383.497 721.569 382.98C697.329 380.98 600.629 377.59 609.389 449.59C610.879 460.343 615.485 470.424 622.639 478.59C622.879 478.88 623.119 479.17 623.359 479.48C632.359 491.03 625.189 507.93 610.759 510.23C591.529 513.29 563.459 521.43 574.999 542.47C574.999 542.47 542.999 541.72 548.499 621.6C548.499 621.6 531.839 673.38 554.919 712.33C563.759 727.27 578.399 737.8 595.139 742.39C609.939 746.44 631.959 755.53 619.789 771.95C617.174 775.409 613.754 778.177 609.826 780.014C605.898 781.851 601.581 782.701 597.249 782.49C577.749 781.71 537.759 782.14 544.479 799.49C550.719 815.62 557.249 831.64 562.639 848.08L568.829 867L542.689 867.2V941C542.689 941 704.999 958.66 676.849 977.6C673.924 979.514 670.505 980.536 667.009 980.54C635.009 980.85 422.259 984.24 456.499 1018.78C458.829 1021.09 461.597 1022.91 464.639 1024.13C478.429 1029.85 532.489 1048.58 644.229 1046.47C692.385 1045.5 740.378 1040.56 787.719 1031.69C858.309 1018.57 994.999 997 958.999 1034.51C912.249 1083.2 1312.73 1057 1333.64 1055.6L1434 687.78V655.07Z" fill="black"/>
<path d="M1304.81 762.76C1304.08 759.25 1303.87 752.15 1313.3 750.11C1313.3 750.11 1319.72 738.19 1327.01 747.67C1327.83 748.739 1328.5 749.913 1329.01 751.16C1329.39 752.13 1329.95 753.017 1330.67 753.768C1331.39 754.52 1332.26 755.122 1333.21 755.54C1333.78 755.777 1334.39 755.949 1335 756.05C1340.28 756.97 1338.7 783.05 1316.5 778.47C1316.5 778.47 1303.43 776.04 1304.93 766.64C1305.13 765.35 1305.09 764.035 1304.81 762.76V762.76Z" fill="#F9F9F9"/>
<path d="M943.859 806.43C948.799 815.02 953.859 833.54 918.399 847.28C918.399 847.28 900.559 884.36 866.499 865.87C862.891 863.896 859.609 861.376 856.769 858.4C853.999 855.54 848.119 851.17 837.769 850.61C835.341 850.489 832.906 850.563 830.489 850.83C809.389 853.11 799.899 783 888.999 775.38C888.999 775.38 941.339 770.17 941.139 796.29C941.114 799.853 942.054 803.357 943.859 806.43V806.43Z" fill="#F9F9F9"/>
<path d="M581.94 611.349C577.17 606.889 571.48 598.749 585.21 593.009C588.56 591.609 592.89 592.479 594.6 595.009C599.04 601.419 605.6 613.339 593.79 614.849C591.679 615.141 589.531 614.98 587.488 614.376C585.444 613.773 583.553 612.741 581.94 611.349Z" fill="#F9F9F9"/>
<path d="M1100.78 850.78C1090.78 840.53 1078.88 821.78 1107.6 808.57C1114.6 805.35 1123.67 807.36 1127.26 813.06C1136.56 827.81 1150.18 855.24 1125.57 858.71C1116.11 860.05 1106.6 856.75 1100.78 850.78Z" fill="#F9F9F9"/>
<path d="M879.64 905.53C872.45 901.19 863.89 893.27 884.55 887.69C889.6 886.32 896.11 887.17 898.69 889.58C905.38 895.82 915.19 907.42 897.48 908.88C890.68 909.45 883.83 908.05 879.64 905.53Z" fill="#F9F9F9"/>
<path d="M832.17 409C834.816 405.555 838.681 403.254 842.97 402.57C847.69 401.77 854.17 398.62 847.36 386.57C847.36 386.57 837.13 367.83 847.98 361.14C849.437 360.267 851.064 359.715 852.752 359.522C854.44 359.329 856.149 359.498 857.766 360.019C859.383 360.539 860.871 361.399 862.128 362.541C863.386 363.683 864.386 365.08 865.06 366.64C866.38 369.72 867.22 374.01 866.9 380C866.69 383.211 867.413 386.414 868.982 389.224C870.55 392.035 872.897 394.332 875.74 395.84L875.99 395.97C876.28 396.12 876.37 396.48 876.64 396.67C883.64 401.74 883.83 417.47 870.14 427.78C866.32 430.589 861.793 432.28 857.067 432.661C852.34 433.043 847.601 432.1 843.38 429.94C834.81 425.62 825.15 418.3 832.17 409Z" fill="#F9F9F9"/>
<path d="M1386.5 849.78H198.1V851.78H1386.5V849.78Z" fill="#DADDDF"/>
<path d="M1413.5 752.78H190.5V754.78H1413.5V752.78Z" fill="#DADDDF"/>
<path d="M1221.05 627.7C1225.15 626.49 1228.78 622.97 1228.45 614.17C1228.45 614.17 1219.77 589.56 1255.24 596.8C1255.24 596.8 1266 598.59 1278.83 592.94C1280.74 592.078 1282.86 591.797 1284.92 592.133C1286.99 592.469 1288.91 593.407 1290.45 594.83C1294.31 598.49 1295.32 605.26 1279.85 617.07C1279.85 617.07 1274.16 621.89 1267.85 623C1264.71 623.498 1261.72 624.678 1259.09 626.458C1256.46 628.238 1254.25 630.573 1252.62 633.3C1250.53 636.658 1249.73 640.666 1250.38 644.57C1251.19 648.416 1250.93 652.413 1249.62 656.12C1245.92 666.12 1235.48 680.85 1206.85 670.37C1203.8 669.298 1201.15 667.307 1199.28 664.67C1197.5 662.214 1196.7 659.185 1197.02 656.17C1197.33 654.005 1197.07 651.797 1196.25 649.768C1195.43 647.74 1194.1 645.963 1192.37 644.62C1191.27 643.801 1190.07 643.128 1188.8 642.62C1187.35 642.057 1186.03 641.203 1184.93 640.111C1183.82 639.019 1182.95 637.712 1182.37 636.27C1180.77 632.13 1178.13 623.8 1185.74 618.69C1188.7 616.755 1192.22 615.887 1195.74 616.23C1199.53 616.57 1204.67 617.98 1207.99 622.75C1209.37 624.841 1211.38 626.445 1213.72 627.334C1216.06 628.222 1218.63 628.35 1221.05 627.7V627.7Z" fill="#F9F9F9"/>
<path d="M1433.5 655.77H181.5V657.77H1433.5V655.77Z" fill="#DADDDF"/>
<path d="M1409.5 558.77H174.5V560.77H1409.5V558.77Z" fill="#DADDDF"/>
<path d="M1382.75 461.77H181.5V463.77H1382.75V461.77Z" fill="#DADDDF"/>
<path d="M1357.5 364.77H253.5V366.77H1357.5V364.77Z" fill="#DADDDF"/>
<path d="M1334.5 267.77H324.5V269.77H1334.5V267.77Z" fill="#DADDDF"/>
<path d="M1069.5 170.77H391.5V172.77H1069.5V170.77Z" fill="#DADDDF"/>
<path d="M1364.5 943.01H205.5L203.5 941.01H1362.5L1364.5 943.01Z" fill="#B2B6BB"/>
<path d="M339.33 246.01L307.89 290.45V548.85H537.92V246.01H339.33Z" fill="#B2B6BB"/>
<path d="M327.48 261.229H523.75V546.189H324.9V415.379V263.319L327.48 261.229Z" fill="white"/>
<path d="M424.07 254.71H417.94V552.01H424.07V254.71Z" fill="#B2B6BB"/>
<path d="M548.5 545.35H295.5V566.88H548.5V545.35Z" fill="#868A91"/>
<path d="M531.61 325.91H312.39V332.04H531.61V325.91Z" fill="#B2B6BB"/>
<path d="M531.62 394.859H312.4V400.989H531.62V394.859Z" fill="#B2B6BB"/>
<path d="M531.61 463.819H312.39V469.949H531.61V463.819Z" fill="#B2B6BB"/>
<path d="M1324.21 232.5C1321.78 223.157 1317.19 214.515 1310.81 207.27C1304.43 200.025 1296.44 194.38 1287.48 190.79C1286.76 190.69 1286.04 190.6 1285.32 190.53L1126.22 174.74C1112.51 198.839 1105.37 226.115 1105.5 253.84C1105.5 334.33 1163.5 399.58 1234.98 399.58C1283.65 399.58 1326.04 369.35 1348.15 324.67L1324.21 232.5Z" fill="#B2B6BB"/>
<path d="M1332.3 263.67C1317.28 258.603 1301.53 256.036 1285.68 256.07C1217.29 256.07 1161.84 302.39 1161.84 359.54C1161.84 416.69 1217.29 463 1285.68 463C1321.14 463 1353.1 450.55 1375.68 430.6L1332.3 263.67Z" class="change-color-in-svg" fill="#4D61FC"/>
<path opacity="0.5" d="M1332.3 263.67C1317.28 258.603 1301.53 256.036 1285.68 256.07C1217.29 256.07 1161.84 302.39 1161.84 359.54C1161.84 416.69 1217.29 463 1285.68 463C1321.14 463 1353.1 450.55 1375.68 430.6L1332.3 263.67Z" fill="white"/>
<path opacity="0.2" d="M1332.3 263.67C1317.28 258.603 1301.53 256.036 1285.68 256.07C1217.29 256.07 1161.84 302.39 1161.84 359.54C1161.84 416.69 1217.29 463 1285.68 463C1321.14 463 1353.1 450.55 1375.68 430.6L1332.3 263.67Z" fill="black"/>
<path d="M1335.45 275.779C1321.35 271.306 1306.65 269.045 1291.86 269.079C1227.86 269.079 1175.93 310.079 1175.93 360.559C1175.93 411.039 1227.83 451.999 1291.86 451.999C1324.07 451.999 1353.2 441.639 1374.21 424.91L1335.45 275.779Z" class="change-color-in-svg" fill="#4D61FC"/>
<path opacity="0.6" d="M1335.45 275.779C1321.35 271.306 1306.65 269.045 1291.86 269.079C1227.86 269.079 1175.93 310.079 1175.93 360.559C1175.93 411.039 1227.83 451.999 1291.86 451.999C1324.07 451.999 1353.2 441.639 1374.21 424.91L1335.45 275.779Z" fill="white"/>
<path d="M542.91 994.62C544.33 992.44 547.72 990.93 551.62 990.54C561.52 989.54 581.45 988.45 571.5 997.03C563.71 1003.74 559.5 1002.41 557.4 1000.26C555.72 998.56 552.55 997.6 549.22 997.81C545.13 998.06 540.9 997.68 542.91 994.62Z" fill="#F9F9F9"/>
<path d="M1056 411.999C1146.85 411.999 1220.5 338.669 1220.5 248.209C1220.53 225.147 1215.65 202.342 1206.19 181.309L919.92 156.189C901.366 183.279 891.458 215.355 891.5 248.189C891.5 338.679 965.15 411.999 1056 411.999Z" class="change-color-in-svg" fill="#4D61FC"/>
<path opacity="0.6" d="M1056 411.999C1146.85 411.999 1220.5 338.669 1220.5 248.209C1220.53 225.147 1215.65 202.342 1206.19 181.309L919.92 156.189C901.366 183.279 891.458 215.355 891.5 248.189C891.5 338.679 965.15 411.999 1056 411.999Z" fill="white"/>
<path d="M905.5 405C999.39 405 1075.5 329.9 1075.5 237.26C1075.53 213.622 1070.48 190.254 1060.71 168.73L764.87 143C745.712 170.697 735.465 203.583 735.5 237.26C735.5 329.91 811.61 405 905.5 405Z" class="change-color-in-svg" fill="#4D61FC"/>
<path opacity="0.6" d="M905.5 405C999.39 405 1075.5 329.9 1075.5 237.26C1075.53 213.622 1070.48 190.254 1060.71 168.73L764.87 143C745.712 170.697 735.465 203.583 735.5 237.26C735.5 329.91 811.61 405 905.5 405Z" fill="white"/>
<path d="M1088.66 524.16C1157.04 524.16 1212.47 478.233 1212.47 421.58C1212.47 364.927 1157.04 319 1088.66 319C1020.28 319 964.85 364.927 964.85 421.58C964.85 478.233 1020.28 524.16 1088.66 524.16Z" class="change-color-in-svg" fill="#4D61FC"/>
<path opacity="0.5" d="M1088.66 524.16C1157.04 524.16 1212.47 478.233 1212.47 421.58C1212.47 364.927 1157.04 319 1088.66 319C1020.28 319 964.85 364.927 964.85 421.58C964.85 478.233 1020.28 524.16 1088.66 524.16Z" fill="white"/>
<path opacity="0.2" d="M1088.66 524.16C1157.04 524.16 1212.47 478.233 1212.47 421.58C1212.47 364.927 1157.04 319 1088.66 319C1020.28 319 964.85 364.927 964.85 421.58C964.85 478.233 1020.28 524.16 1088.66 524.16Z" fill="black"/>
<path d="M1098.97 527.01C1168.3 527.01 1224.5 480.447 1224.5 423.01C1224.5 365.572 1168.3 319.01 1098.97 319.01C1029.64 319.01 973.439 365.572 973.439 423.01C973.439 480.447 1029.64 527.01 1098.97 527.01Z" class="change-color-in-svg" fill="#4D61FC"/>
<path opacity="0.6" d="M1098.97 527.01C1168.3 527.01 1224.5 480.447 1224.5 423.01C1224.5 365.572 1168.3 319.01 1098.97 319.01C1029.64 319.01 973.439 365.572 973.439 423.01C973.439 480.447 1029.64 527.01 1098.97 527.01Z" fill="white"/>
<g opacity="0.1">
<g opacity="0.1">
<g opacity="0.1">
<path opacity="0.1" d="M335.719 688.619L326.199 894.179" stroke="#21252B" stroke-width="1.15" stroke-miterlimit="10" stroke-linecap="round"/>
<path opacity="0.1" d="M266.51 777.97L308.81 821.33" stroke="#21252B" stroke-width="1.15" stroke-miterlimit="10" stroke-linecap="round"/>
<path opacity="0.1" d="M364.979 829.5L326.859 880.02" stroke="#21252B" stroke-width="1.15" stroke-miterlimit="10" stroke-linecap="round"/>
<path opacity="0.1" d="M383.539 744.68L331.039 797.09" stroke="#21252B" stroke-width="1.15" stroke-miterlimit="10" stroke-linecap="round"/>
<g opacity="0.1">
<path opacity="0.1" d="M379.999 772.82C392.439 760.05 396.199 744.99 388.399 739.19C380.599 733.39 364.179 739.05 351.729 751.82C339.279 764.59 335.519 779.65 343.329 785.45C351.139 791.25 367.549 785.6 379.999 772.82Z" class="change-color-in-svg" fill="#4D61FC"/>
<g opacity="0.3">
<g opacity="0.3">
<path opacity="0.3" d="M388.889 739.72L343.079 785.27C343.249 785.27 343.249 785.41 343.419 785.41C351.269 791.25 367.659 785.56 380.029 772.86C392.229 760.45 396.079 745.86 388.889 739.72Z" fill="black"/>
</g>
</g>
<path opacity="0.1" d="M291.81 803.539C297.86 799.169 295.13 787.539 285.71 777.629C276.29 767.719 263.76 763.169 257.71 767.539C251.66 771.909 254.39 783.539 263.8 793.449C273.21 803.359 285.75 807.909 291.8 803.539" class="change-color-in-svg" fill="#4D61FC"/>
<g opacity="0.3">
<g opacity="0.3">
<path opacity="0.3" d="M257.31 767.89L291.92 803.37L291.76 803.52C285.76 807.89 273.2 803.37 263.67 793.44C254.67 783.81 251.8 772.44 257.31 767.89Z" fill="black"/>
</g>
</g>
<path opacity="0.1" d="M272.859 836.8L317.499 867.17" stroke="#21252B" stroke-width="1.15" stroke-miterlimit="10" stroke-linecap="round"/>
<path opacity="0.1" d="M303.54 857.34C308.44 851.98 303.06 841.11 291.54 833.06C280.02 825.01 266.68 822.8 261.77 828.16C256.86 833.52 262.25 844.38 273.77 852.43C285.29 860.48 298.63 862.69 303.53 857.34" class="change-color-in-svg" fill="#4D61FC"/>
<g opacity="0.3">
<g opacity="0.3">
<path opacity="0.3" d="M261.489 828.63L303.619 857.24L303.459 857.39C298.609 862.79 285.23 860.6 273.7 852.57C262.5 844.69 257.149 834.03 261.489 828.63" fill="black"/>
</g>
</g>
<path opacity="0.1" d="M353.17 704.07C354.04 687.32 346.59 673.42 336.54 673.02C326.49 672.62 317.63 685.88 316.76 702.63C315.89 719.38 323.33 733.29 333.38 733.69C343.43 734.09 352.29 720.83 353.17 704.07Z" class="change-color-in-svg" fill="#4D61FC"/>
<g opacity="0.3">
<g opacity="0.3">
<path opacity="0.3" d="M316.829 702.78C317.669 686.14 326.529 672.85 336.559 673.29L333.379 733.88C323.379 733.29 315.999 719.42 316.829 702.78Z" fill="black"/>
</g>
</g>
<path opacity="0.1" d="M369 848.58C377.36 837.16 378.27 824.64 371 820.58C363.73 816.52 351.12 822.51 342.77 833.92C334.42 845.33 333.5 857.86 340.77 861.92C348.04 865.98 360.68 860 369 848.58Z" class="change-color-in-svg" fill="#4D61FC"/>
<g opacity="0.3">
<g opacity="0.3">
<path opacity="0.3" d="M342.91 833.879C334.72 844.979 333.72 857.239 340.4 861.479L371 820.599L369.16 819.869C361.97 817.529 350.6 823.369 342.91 833.869" fill="black"/>
</g>
</g>
<path opacity="0.1" d="M322.02 891.699L295.93 749.789" stroke="#21252B" stroke-width="1.15" stroke-miterlimit="10" stroke-linecap="round"/>
<path opacity="0.1" d="M298.409 769.649C307.339 768.409 312.409 755.329 309.639 740.439C306.869 725.549 297.459 714.439 288.529 715.739C279.599 717.039 274.529 730.069 277.289 744.959C280.049 759.849 289.469 770.899 298.409 769.649Z" class="change-color-in-svg" fill="#4D61FC"/>
<g opacity="0.3">
<g opacity="0.3">
<path opacity="0.3" d="M277.21 744.999C274.53 730.109 279.55 716.999 288.41 715.659L298.27 769.659C289.41 771.129 279.89 760.029 277.21 744.989" fill="black"/>
</g>
</g>
<path opacity="0.1" d="M310.479 941.92H341.739C347.589 941.92 352.279 937.83 352.279 932.72V896.51H299.779V932.72C299.949 937.83 304.629 941.92 310.479 941.92" fill="#868A91"/>
<path opacity="0.1" d="M353.609 891.699H298.779C298.116 891.699 297.48 891.963 297.012 892.431C296.543 892.9 296.279 893.536 296.279 894.199C296.279 894.862 296.543 895.498 297.012 895.967C297.48 896.436 298.116 896.699 298.779 896.699H353.609C353.96 896.725 354.312 896.681 354.645 896.57C354.978 896.459 355.286 896.284 355.551 896.053C355.816 895.822 356.033 895.542 356.189 895.227C356.344 894.912 356.436 894.57 356.459 894.219C356.361 893.533 356.019 892.904 355.496 892.449C354.972 891.994 354.303 891.742 353.609 891.739" fill="#868A91"/>
<path opacity="0.1" d="M352.439 896.51H304.629C303.966 896.51 303.33 896.246 302.862 895.778C302.393 895.309 302.129 894.673 302.129 894.01C302.129 893.347 302.393 892.711 302.862 892.242C303.33 891.773 303.966 891.51 304.629 891.51H298.779C298.116 891.51 297.48 891.773 297.012 892.242C296.543 892.711 296.279 893.347 296.279 894.01C296.279 894.673 296.543 895.309 297.012 895.778C297.48 896.246 298.116 896.51 298.779 896.51H299.999V932.57C299.999 937.68 304.679 941.77 310.529 941.77H327.529C320.179 941.77 313.659 937.25 312.319 930.82L304.799 897.1H352.439V896.51Z" fill="#61656D"/>
</g>
</g>
</g>
</g>
<path d="M347.719 688.619L338.199 894.179" stroke="#21252B" stroke-width="1.15" stroke-miterlimit="10" stroke-linecap="round"/>
<path d="M278.51 777.97L320.81 821.33" stroke="#21252B" stroke-width="1.15" stroke-miterlimit="10" stroke-linecap="round"/>
<path d="M376.979 829.5L338.859 880.02" stroke="#21252B" stroke-width="1.15" stroke-miterlimit="10" stroke-linecap="round"/>
<path d="M395.539 744.68L343.039 797.09" stroke="#21252B" stroke-width="1.15" stroke-miterlimit="10" stroke-linecap="round"/>
<path d="M391.999 772.82C404.439 760.05 408.199 744.99 400.399 739.19C392.599 733.39 376.179 739.05 363.729 751.82C351.279 764.59 347.519 779.65 355.329 785.45C363.139 791.25 379.549 785.6 391.999 772.82Z" class="change-color-in-svg" fill="#4D61FC"/>
<g opacity="0.2">
<g opacity="0.2">
<path opacity="0.2" d="M400.889 739.72L355.079 785.27C355.249 785.27 355.249 785.41 355.419 785.41C363.269 791.25 379.659 785.56 392.029 772.86C404.229 760.45 408.079 745.86 400.889 739.72Z" fill="black"/>
</g>
</g>
<path d="M303.81 803.539C309.86 799.169 307.13 787.539 297.71 777.629C288.29 767.719 275.76 763.169 269.71 767.539C263.66 771.909 266.39 783.539 275.8 793.449C285.21 803.359 297.75 807.909 303.8 803.539" class="change-color-in-svg" fill="#4D61FC"/>
<g opacity="0.2">
<g opacity="0.2">
<path opacity="0.2" d="M269.31 767.89L303.92 803.37L303.76 803.52C297.76 807.89 285.2 803.37 275.67 793.44C266.67 783.81 263.8 772.44 269.31 767.89Z" fill="black"/>
</g>
</g>
<path d="M284.859 836.8L329.499 867.17" stroke="#21252B" stroke-width="1.15" stroke-miterlimit="10" stroke-linecap="round"/>
<path d="M315.54 857.34C320.44 851.98 315.06 841.11 303.54 833.06C292.02 825.01 278.68 822.8 273.77 828.16C268.86 833.52 274.25 844.38 285.77 852.43C297.29 860.48 310.63 862.69 315.53 857.34" class="change-color-in-svg" fill="#4D61FC"/>
<g opacity="0.2">
<g opacity="0.2">
<path opacity="0.2" d="M273.489 828.63L315.619 857.24L315.459 857.39C310.609 862.79 297.23 860.6 285.7 852.57C274.5 844.69 269.149 834.03 273.489 828.63" fill="black"/>
</g>
</g>
<path d="M365.17 704.07C366.04 687.32 358.59 673.42 348.54 673.02C338.49 672.62 329.63 685.88 328.76 702.63C327.89 719.38 335.33 733.29 345.38 733.69C355.43 734.09 364.29 720.83 365.17 704.07Z" class="change-color-in-svg" fill="#4D61FC"/>
<g opacity="0.2">
<g opacity="0.2">
<path opacity="0.2" d="M328.829 702.78C329.669 686.14 338.529 672.85 348.559 673.29L345.379 733.88C335.379 733.29 327.999 719.42 328.829 702.78Z" fill="black"/>
</g>
</g>
<path d="M381 848.58C389.36 837.16 390.27 824.64 383 820.58C375.73 816.52 363.12 822.51 354.77 833.92C346.42 845.33 345.5 857.86 352.77 861.92C360.04 865.98 372.68 860 381 848.58Z" class="change-color-in-svg" fill="#4D61FC"/>
<g opacity="0.2">
<g opacity="0.2">
<path opacity="0.2" d="M354.91 833.879C346.72 844.979 345.72 857.239 352.4 861.479L383 820.599L381.16 819.869C373.97 817.529 362.6 823.369 354.91 833.869" fill="black"/>
</g>
</g>
<path d="M334.02 891.699L307.93 749.789" stroke="#21252B" stroke-width="1.15" stroke-miterlimit="10" stroke-linecap="round"/>
<path d="M310.409 769.649C319.339 768.409 324.409 755.329 321.639 740.439C318.869 725.549 309.459 714.439 300.529 715.739C291.599 717.039 286.529 730.069 289.289 744.959C292.049 759.849 301.469 770.899 310.409 769.649Z" class="change-color-in-svg" fill="#4D61FC"/>
<g opacity="0.2">
<g opacity="0.2">
<path opacity="0.2" d="M289.21 744.999C286.53 730.109 291.55 716.999 300.41 715.659L310.27 769.659C301.41 771.129 291.89 760.029 289.21 744.989" fill="black"/>
</g>
</g>
<path d="M322.479 941.92H353.739C359.589 941.92 364.279 937.83 364.279 932.72V896.51H311.779V932.72C311.949 937.83 316.629 941.92 322.479 941.92" fill="#868A91"/>
<path d="M365.609 891.699H310.779C310.116 891.699 309.48 891.963 309.012 892.431C308.543 892.9 308.279 893.536 308.279 894.199C308.279 894.862 308.543 895.498 309.012 895.967C309.48 896.436 310.116 896.699 310.779 896.699H365.609C365.96 896.725 366.312 896.681 366.645 896.57C366.978 896.459 367.286 896.284 367.551 896.053C367.816 895.822 368.033 895.542 368.189 895.227C368.344 894.912 368.436 894.57 368.459 894.219C368.361 893.533 368.019 892.904 367.496 892.449C366.972 891.994 366.303 891.742 365.609 891.739" fill="#868A91"/>
<path d="M364.439 896.51H316.629C315.966 896.51 315.33 896.246 314.862 895.778C314.393 895.309 314.129 894.673 314.129 894.01C314.129 893.347 314.393 892.711 314.862 892.242C315.33 891.773 315.966 891.51 316.629 891.51H310.779C310.116 891.51 309.48 891.773 309.012 892.242C308.543 892.711 308.279 893.347 308.279 894.01C308.279 894.673 308.543 895.309 309.012 895.778C309.48 896.246 310.116 896.51 310.779 896.51H311.999V932.57C311.999 937.68 316.679 941.77 322.529 941.77H339.529C332.179 941.77 325.659 937.25 324.319 930.82L316.799 897.1H364.439V896.51Z" fill="#61656D"/>
<path opacity="0.2" d="M1343.61 307.2L1324.21 232.5C1321.76 223.077 1317.11 214.368 1310.64 207.089C1304.17 199.809 1296.07 194.166 1287 190.62C1286.12 190.48 1285.23 190.37 1284.34 190.27L1135.83 174.77L1131.15 174.36C1129.66 184.566 1129.07 194.882 1129.38 205.19C1131.8 287.76 1190.26 352.36 1259.94 349.49C1292.62 348.14 1321.92 332.22 1343.61 307.2Z" fill="black"/>
<path opacity="0.2" d="M1035 374C1122 374 1192.5 307.77 1192.5 226.07C1192.5 210.052 1189.74 194.153 1184.35 179.07L897.58 153.76C884.447 175.597 877.505 200.597 877.5 226.08C877.5 307.78 948 374 1035 374Z" fill="black"/>
<path d="M1041.75 374C1125.01 374 1192.5 310.61 1192.5 232.41C1192.51 213.947 1188.69 195.683 1181.29 178.77L915.29 155.31C899.493 177.918 891.012 204.829 890.99 232.41C891 310.62 958.49 374 1041.75 374Z" class="change-color-in-svg" fill="#4D61FC"/>
<path opacity="0.6" d="M1041.75 374C1125.01 374 1192.5 310.61 1192.5 232.41C1192.51 213.947 1188.69 195.683 1181.29 178.77L915.29 155.31C899.493 177.918 891.012 204.829 890.99 232.41C891 310.62 958.49 374 1041.75 374Z" fill="white"/>
<path d="M1341.42 298.74L1324.21 232.5C1321.61 222.515 1316.55 213.341 1309.49 205.818C1302.43 198.295 1293.6 192.664 1283.8 189.44L1282.61 189.3L1139.21 175.07L1131.32 174.37C1129.85 183.939 1129.26 193.624 1129.57 203.3C1131.97 280.82 1189.7 341.47 1258.57 338.77C1290.9 337.5 1320 322.42 1341.42 298.74Z" class="change-color-in-svg" fill="#4D61FC"/>
<path opacity="0.6" d="M1341.42 298.74L1324.21 232.5C1321.61 222.515 1316.55 213.341 1309.49 205.818C1302.43 198.295 1293.6 192.664 1283.8 189.44L1282.61 189.3L1139.21 175.07L1131.32 174.37C1129.85 183.939 1129.26 193.624 1129.57 203.3C1131.97 280.82 1189.7 341.47 1258.57 338.77C1290.9 337.5 1320 322.42 1341.42 298.74Z" fill="white"/>
<path d="M1129.5 315C1122.03 316.91 1059.5 300 1036.35 297.79C1035.48 297.71 1035.64 298.79 1036.42 299.16C1057.5 310 1141.5 332 1141.5 332L1319.5 470L1207.58 456.1L1159.5 431L1093.8 389.47C1093.52 389.299 1093.19 389.24 1092.87 389.304C1092.54 389.368 1092.26 389.551 1092.07 389.816C1091.87 390.082 1091.79 390.41 1091.83 390.735C1091.87 391.06 1092.03 391.358 1092.28 391.57L1144.28 434.11L1086.15 441.41C1085.82 441.451 1085.52 441.616 1085.31 441.872C1085.1 442.128 1084.99 442.455 1085.01 442.785C1085.03 443.116 1085.18 443.426 1085.42 443.652C1085.67 443.878 1085.99 444.003 1086.32 444H1156.32L1206.17 474.45L1334.12 497.73L1408.5 557L1388.5 483.61L1363.17 460.61L1322 366.64C1321.87 366.338 1321.63 366.097 1321.33 365.964C1321.03 365.832 1320.69 365.818 1320.38 365.925C1320.07 366.033 1319.81 366.254 1319.66 366.545C1319.5 366.835 1319.46 367.173 1319.55 367.49L1342.75 454.94L1246.5 391C1246.5 391 1255.88 298 1237.66 267.39C1237.49 267.115 1237.22 266.914 1236.91 266.827C1236.59 266.74 1236.26 266.774 1235.97 266.92C1235.68 267.067 1235.46 267.316 1235.34 267.62C1235.23 267.923 1235.23 268.259 1235.35 268.56C1246.35 294.76 1232.65 377.02 1230.5 384L1070 244.69C1069.72 244.522 1069.39 244.463 1069.07 244.527C1068.75 244.591 1068.47 244.772 1068.28 245.034C1068.08 245.296 1068 245.621 1068.03 245.945C1068.07 246.268 1068.22 246.566 1068.47 246.78" fill="#61656D"/>
<path d="M1019.23 604H1030.69C1032.11 604 1033.47 604.564 1034.47 605.567C1035.48 606.57 1036.04 607.931 1036.04 609.35V789.7H1013.87V609.36C1013.87 608.656 1014.01 607.958 1014.28 607.307C1014.54 606.656 1014.94 606.065 1015.44 605.567C1015.94 605.069 1016.53 604.674 1017.18 604.405C1017.83 604.136 1018.53 603.999 1019.23 604V604Z" fill="#868A91"/>
<path d="M588.73 604H600.19C601.609 604 602.97 604.564 603.973 605.567C604.976 606.57 605.54 607.931 605.54 609.35V789.7H583.38V609.36C583.379 608.657 583.516 607.96 583.784 607.31C584.053 606.659 584.446 606.068 584.943 605.57C585.44 605.073 586.031 604.678 586.68 604.408C587.33 604.139 588.026 604 588.73 604V604Z" fill="#868A91"/>
<g opacity="0.1">
<path opacity="0.1" d="M1019.23 604H1030.69C1032.11 604 1033.47 604.564 1034.47 605.567C1035.48 606.57 1036.04 607.931 1036.04 609.35V789.7H1013.87V609.36C1013.87 608.656 1014.01 607.958 1014.28 607.307C1014.54 606.656 1014.94 606.065 1015.44 605.567C1015.94 605.069 1016.53 604.674 1017.18 604.405C1017.83 604.136 1018.53 603.999 1019.23 604V604Z" fill="black"/>
</g>
<g opacity="0.1">
<path opacity="0.1" d="M588.73 604H600.19C601.609 604 602.97 604.564 603.973 605.567C604.976 606.57 605.54 607.931 605.54 609.35V789.7H583.38V609.36C583.379 608.657 583.516 607.96 583.784 607.31C584.053 606.659 584.446 606.068 584.943 605.57C585.44 605.073 586.031 604.678 586.68 604.408C587.33 604.139 588.026 604 588.73 604V604Z" fill="black"/>
</g>
<path d="M1101.91 700.82H510.83V736.59H1101.91V700.82Z" fill="#868A91"/>
<path d="M1101.91 655.98H510.83V691.75H1101.91V655.98Z" fill="#868A91"/>
<path d="M1101.91 610.34H510.83V646.11H1101.91V610.34Z" fill="#868A91"/>
<path d="M1101.91 705.26H510.83V741.03H1101.91V705.26Z" fill="#B2B6BB"/>
<path d="M1101.91 660.41H510.83V696.18H1101.91V660.41Z" fill="#B2B6BB"/>
<path d="M1101.91 614.77H510.83V650.539H1101.91V614.77Z" fill="#B2B6BB"/>
<path d="M1131.5 816.4H480.5V844.77H1131.5V816.4Z" fill="#868A91"/>
<path d="M1131.5 816.4H480.5V844.77H1131.5V816.4Z" fill="#868A91"/>
<path d="M1131.5 816.4H480.5L510.09 788.03H1101.91L1131.5 816.4Z" fill="#B2B6BB"/>
<path d="M574.08 1004C571.01 1004 568.59 1001.67 568.85 999L583.38 844.39H607.55L579.26 1000.12C578.977 1001.26 578.307 1002.28 577.363 1002.98C576.419 1003.69 575.259 1004.05 574.08 1004V1004Z" fill="#868A91"/>
<path d="M1050.3 1003.12C1053.37 1003.12 1055.78 1000.79 1055.53 998.12L1041 843.48H1016.83L1045.12 999.211C1045.4 1000.36 1046.06 1001.38 1047.01 1002.1C1047.95 1002.81 1049.12 1003.17 1050.3 1003.12V1003.12Z" fill="#868A91"/>
<path d="M995.3 981.83C998.37 981.83 1000.78 979.83 1000.53 977.5L986 844.36H961.83L990.12 978.47C990.53 980.41 992.72 981.83 995.3 981.83Z" fill="#868A91"/>
<path d="M633.08 981.83C630.01 981.83 627.59 979.83 627.85 977.5L642.38 844.36H666.55L638.26 978.47C637.85 980.41 635.65 981.83 633.08 981.83Z" fill="#868A91"/>
<path d="M1024.5 635.05C1026.16 635.05 1027.5 633.86 1027.5 632.391C1027.5 630.921 1026.16 629.73 1024.5 629.73C1022.84 629.73 1021.5 630.921 1021.5 632.391C1021.5 633.86 1022.84 635.05 1024.5 635.05Z" fill="#868A91"/>
<path d="M1024.5 682.06C1026.16 682.06 1027.5 680.869 1027.5 679.4C1027.5 677.931 1026.16 676.74 1024.5 676.74C1022.84 676.74 1021.5 677.931 1021.5 679.4C1021.5 680.869 1022.84 682.06 1024.5 682.06Z" fill="#868A91"/>
<path d="M1024.5 725.51C1026.16 725.51 1027.5 724.319 1027.5 722.85C1027.5 721.381 1026.16 720.19 1024.5 720.19C1022.84 720.19 1021.5 721.381 1021.5 722.85C1021.5 724.319 1022.84 725.51 1024.5 725.51Z" fill="#868A91"/>
<path d="M594.5 635.05C596.157 635.05 597.5 633.86 597.5 632.391C597.5 630.921 596.157 629.73 594.5 629.73C592.843 629.73 591.5 630.921 591.5 632.391C591.5 633.86 592.843 635.05 594.5 635.05Z" fill="#868A91"/>
<path d="M594.5 681.17C596.157 681.17 597.5 679.979 597.5 678.51C597.5 677.041 596.157 675.85 594.5 675.85C592.843 675.85 591.5 677.041 591.5 678.51C591.5 679.979 592.843 681.17 594.5 681.17Z" fill="#868A91"/>
<path d="M594.5 724.63C596.157 724.63 597.5 723.439 597.5 721.97C597.5 720.5 596.157 719.31 594.5 719.31C592.843 719.31 591.5 720.5 591.5 721.97C591.5 723.439 592.843 724.63 594.5 724.63Z" fill="#868A91"/>
<path opacity="0.1" d="M1055.53 998.08L1041.09 844.44L1016.86 843.64L1019.5 858.9L1026.17 860.49C1028.85 861.087 1031.28 862.501 1033.13 864.537C1034.98 866.573 1036.15 869.131 1036.48 871.86L1050.48 1003.05H1050.99C1052.25 1002.98 1053.42 1002.42 1054.27 1001.49C1055.12 1000.56 1055.57 999.337 1055.53 998.08V998.08Z" fill="black"/>
<path opacity="0.1" d="M1000.53 977.5L986 844.72L961.84 844.58L966.21 865.31L975.46 905.68L978.82 906.55C981.051 907.096 983.074 908.284 984.638 909.967C986.202 911.65 987.238 913.755 987.62 916.02L997.8 981.33C998.611 981.077 999.316 980.566 999.809 979.874C1000.3 979.183 1000.56 978.349 1000.53 977.5Z" fill="black"/>
<path opacity="0.1" d="M583.5 844.58L581.93 859.77L584.93 860.91C587.632 861.897 589.917 863.775 591.41 866.234C592.902 868.693 593.512 871.588 593.14 874.44L574.5 1004C575.612 1003.97 576.684 1003.58 577.546 1002.88C578.408 1002.17 579.011 1001.2 579.26 1000.12L607.48 844.74L583.5 844.58Z" fill="black"/>
<path opacity="0.1" d="M642.5 844.58L636.1 901.88L641.1 903.88C642.354 904.362 643.41 905.25 644.099 906.404C644.788 907.557 645.07 908.908 644.9 910.24L634.9 981.6C635.701 981.436 636.443 981.059 637.047 980.508C637.651 979.957 638.094 979.253 638.33 978.47L666.54 844.73L642.5 844.58Z" fill="black"/>
<path d="M1013.28 797.19C1012.16 799.69 1011.04 802.19 1009.91 804.69C1009.87 804.767 1009.81 804.832 1009.74 804.876C1009.66 804.92 1009.58 804.942 1009.49 804.94H1004.93C1003.33 804.94 1001.36 804.6 1001.18 806.86C1001.18 807.49 1000.18 807.5 1000.18 806.86C1000.48 802.86 1005.47 803.95 1008.18 803.95H1009.18C1009.72 803.95 1008.92 804.41 1009.1 804.01C1009.47 803.17 1009.85 802.33 1010.23 801.49C1010.94 799.89 1011.66 798.29 1012.38 796.69C1012.64 796.11 1013.49 796.61 1013.23 797.19H1013.28Z" fill="#21252B"/>
<path d="M1009.49 804C1012.07 804 1016.27 803.18 1016.49 806.91C1016.49 807.55 1015.49 807.54 1015.49 806.91C1015.42 805.5 1014.49 804.99 1013.25 804.99H1009.51C1009.38 804.99 1009.25 804.938 1009.16 804.844C1009.06 804.75 1009.01 804.623 1009.01 804.49C1009.01 804.358 1009.06 804.231 1009.16 804.137C1009.25 804.043 1009.38 803.99 1009.51 803.99L1009.49 804Z" fill="#21252B"/>
<path d="M1038.57 784.48C1038.57 784.48 1020.78 768.21 1014.85 761.67C1008.92 755.13 1001.32 751.49 993.849 753.67C986.379 755.85 981.549 764 984.139 774.3C986.729 784.6 998.679 799.84 1014.85 799.08C1031.02 798.32 1036.29 787.52 1038.57 784.48Z" fill="#DADDDF"/>
<path opacity="0.1" d="M1038.57 784.48C1038.57 784.48 1020.78 768.21 1014.85 761.67C1008.92 755.13 1001.32 751.49 993.849 753.67C986.379 755.85 981.549 764 984.139 774.3C986.729 784.6 998.679 799.84 1014.85 799.08C1031.02 798.32 1036.29 787.52 1038.57 784.48Z" fill="black"/>
<path d="M1033.1 791.57C1031.98 792.354 1030.68 792.854 1029.32 793.028C1027.96 793.202 1026.58 793.045 1025.3 792.57C1025.3 792.57 1027.65 795.18 1023.47 795.7C1019.29 796.22 1010.71 792.83 1010.71 792.83C1010.71 792.83 1012.71 795.94 1009.64 795.75C1006.57 795.56 1000.11 792.01 994.81 786.58C989.51 781.15 982.01 772.45 986.73 762.21C990.51 754 1002.5 748.66 1019.62 767.81L1033.1 791.57Z" fill="#DADDDF"/>
<path d="M993.869 753.62C1001.32 751.49 1008.87 755.14 1014.87 761.62C1016.99 763.96 1020.61 767.53 1024.4 771.15L1020.31 775.26L1012.75 769.57C1012.75 769.57 1012.75 763.5 1007.75 763C1000.42 762.28 1001.52 777.31 983.509 769.45C983.179 761.48 987.609 755.4 993.869 753.62Z" class="change-color-in-svg" fill="#4D61FC"/>
<path opacity="0.2" d="M993.869 753.62C1001.32 751.49 1008.87 755.14 1014.87 761.62C1016.99 763.96 1020.61 767.53 1024.4 771.15L1020.31 775.26L1012.75 769.57C1012.75 769.57 1012.75 763.5 1007.75 763C1000.42 762.28 1001.52 777.31 983.509 769.45C983.179 761.48 987.609 755.4 993.869 753.62Z" fill="black"/>
<path d="M990.829 766.08C990.829 766.561 990.972 767.031 991.239 767.43C991.506 767.83 991.885 768.141 992.329 768.325C992.773 768.509 993.262 768.557 993.733 768.464C994.205 768.37 994.638 768.138 994.977 767.799C995.317 767.459 995.549 767.026 995.642 766.554C995.736 766.083 995.688 765.594 995.504 765.15C995.32 764.706 995.009 764.327 994.609 764.06C994.21 763.793 993.74 763.65 993.259 763.65C992.615 763.65 991.997 763.906 991.541 764.362C991.085 764.818 990.829 765.436 990.829 766.08Z" fill="black"/>
<path d="M983.999 764.261C983.999 764.261 978.94 766.771 978.82 767.791C978.7 768.811 983.71 772.151 983.71 772.151C983.71 772.151 985.999 767.341 983.999 764.261Z" fill="#3F4249"/>
<path d="M1015.59 798C1014.47 800.5 1013.35 803 1012.22 805.5C1012.18 805.574 1012.12 805.635 1012.04 805.677C1011.97 805.719 1011.88 805.741 1011.8 805.74H1007.24C1005.64 805.74 1003.66 805.41 1003.49 807.67C1003.49 808.3 1002.49 808.3 1002.49 807.67C1002.79 803.67 1007.78 804.76 1010.49 804.76H1011.49C1012.03 804.76 1011.23 805.22 1011.41 804.82C1011.78 803.98 1012.16 803.14 1012.54 802.29L1014.69 797.5C1014.95 796.92 1015.8 797.42 1015.54 798H1015.59Z" fill="#21252B"/>
<path d="M1011.8 804.73C1014.38 804.73 1018.58 803.91 1018.8 807.64C1018.8 808.27 1017.8 808.27 1017.8 807.64C1017.74 806.22 1016.8 805.71 1015.56 805.71H1011.83C1011.7 805.71 1011.57 805.657 1011.48 805.563C1011.38 805.47 1011.33 805.342 1011.33 805.21C1011.33 805.077 1011.38 804.95 1011.48 804.856C1011.57 804.762 1011.7 804.71 1011.83 804.71L1011.8 804.73Z" fill="#21252B"/>
<path d="M1048.31 789.5C1048.31 789.5 1027.23 771.65 1021.88 768.79C1016.53 765.93 1007.79 766.7 1005.58 774.3C1003.14 782.66 1011.47 797.56 1034.98 789.5L1042.07 800.6L1048.31 789.5Z" class="change-color-in-svg" fill="#4D61FC"/>
<path opacity="0.2" d="M1033.71 784.001C1033.71 784.001 1032.52 786.001 1026.35 781.121C1026.35 781.121 1028.98 784.581 1026.85 785.121C1024.72 785.661 1018.98 781.581 1018.98 781.581C1018.98 781.581 1021.9 784.481 1019.45 785.321C1017 786.161 1012.95 782.591 1012.04 780.481C1011.13 778.371 1009.1 773.421 1013.11 771.201C1017.12 768.981 1024 771.591 1028.75 775.411C1033.5 779.231 1034.87 781.751 1033.71 784.001Z" fill="white"/>
<path d="M992.589 766.411C992.871 766.411 993.099 766.182 993.099 765.901C993.099 765.619 992.871 765.391 992.589 765.391C992.307 765.391 992.079 765.619 992.079 765.901C992.079 766.182 992.307 766.411 992.589 766.411Z" fill="white"/>
<path d="M419.84 992.19L423.2 999.69C423.242 999.767 423.304 999.831 423.38 999.876C423.456 999.92 423.542 999.942 423.63 999.94H428.19C429.79 999.94 431.76 999.6 431.94 1001.86C431.94 1002.49 432.94 1002.5 432.94 1001.86C432.64 997.86 427.65 998.95 424.89 998.95H423.89C423.35 998.95 424.15 999.41 423.97 999.01L422.84 996.49L420.69 991.69C420.43 991.11 419.58 991.61 419.84 992.19Z" fill="#21252B"/>
<path d="M423.63 999C421.05 999 416.85 998.18 416.63 1001.91C416.63 1002.55 417.58 1002.54 417.63 1001.91C417.7 1000.5 418.63 999.99 419.87 999.99H423.61C423.742 999.99 423.87 999.938 423.963 999.844C424.057 999.75 424.11 999.623 424.11 999.49C424.11 999.358 424.057 999.231 423.963 999.137C423.87 999.043 423.742 998.99 423.61 998.99L423.63 999Z" fill="#21252B"/>
<path d="M394.54 979.48C394.54 979.48 412.34 963.21 418.27 956.67C424.2 950.13 431.8 946.49 439.27 948.67C446.74 950.85 451.57 959 449 969.3C446.43 979.6 434.46 994.84 418.29 994.08C402.12 993.32 396.83 982.52 394.54 979.48Z" fill="#DADDDF"/>
<path opacity="0.1" d="M394.54 979.48C394.54 979.48 412.34 963.21 418.27 956.67C424.2 950.13 431.8 946.49 439.27 948.67C446.74 950.85 451.57 959 449 969.3C446.43 979.6 434.46 994.84 418.29 994.08C402.12 993.32 396.83 982.52 394.54 979.48Z" fill="black"/>
<path d="M400 986.57C401.123 987.354 402.419 987.854 403.777 988.028C405.135 988.202 406.516 988.045 407.8 987.57C407.8 987.57 405.45 990.18 409.62 990.7C413.79 991.22 422.39 987.83 422.39 987.83C422.39 987.83 420.39 990.94 423.46 990.75C426.53 990.56 432.99 987.01 438.29 981.58C443.59 976.15 451.09 967.45 446.37 957.21C442.59 949 430.59 943.66 413.48 962.81L400 986.57Z" fill="#DADDDF"/>
<path d="M439.25 948.62C431.8 946.49 424.2 950.14 418.25 956.62C416.13 958.96 412.51 962.53 408.72 966.15L412.8 970.26L420.37 964.57C420.37 964.57 420.37 958.5 425.37 958C432.7 957.28 431.6 972.31 449.61 964.45C449.93 956.48 445.5 950.4 439.25 948.62Z" class="change-color-in-svg" fill="#4D61FC"/>
<path opacity="0.2" d="M439.25 948.62C431.8 946.49 424.2 950.14 418.25 956.62C416.13 958.96 412.51 962.53 408.72 966.15L412.8 970.26L420.37 964.57C420.37 964.57 420.37 958.5 425.37 958C432.7 957.28 431.6 972.31 449.61 964.45C449.93 956.48 445.5 950.4 439.25 948.62Z" fill="black"/>
<path d="M442.29 961.08C442.29 961.561 442.147 962.031 441.88 962.43C441.613 962.83 441.234 963.141 440.79 963.325C440.346 963.509 439.857 963.557 439.386 963.464C438.914 963.37 438.481 963.138 438.141 962.799C437.802 962.459 437.57 962.026 437.476 961.554C437.383 961.083 437.431 960.594 437.615 960.15C437.799 959.706 438.11 959.327 438.51 959.06C438.909 958.793 439.379 958.65 439.86 958.65C440.504 958.65 441.122 958.906 441.578 959.362C442.034 959.818 442.29 960.436 442.29 961.08V961.08Z" fill="black"/>
<path d="M449.129 959.261C449.129 959.261 454.189 961.771 454.299 962.791C454.409 963.811 449.419 967.151 449.419 967.151C449.419 967.151 447.159 962.341 449.129 959.261Z" fill="#3F4249"/>
<path d="M417.529 993C418.649 995.5 419.773 998 420.899 1000.5C420.941 1000.57 421.002 1000.64 421.076 1000.68C421.15 1000.72 421.234 1000.74 421.319 1000.74H425.879C427.479 1000.74 429.459 1000.41 429.629 1002.67C429.679 1003.3 430.629 1003.3 430.629 1002.67C430.329 998.67 425.339 999.76 422.579 999.76H421.579C421.039 999.76 421.839 1000.22 421.659 999.82C421.289 998.98 420.909 998.14 420.529 997.29L418.379 992.5C418.119 991.92 417.269 992.42 417.529 993Z" fill="#21252B"/>
<path d="M421.319 999.73C418.739 999.73 414.539 998.91 414.319 1002.64C414.319 1003.27 415.269 1003.27 415.319 1002.64C415.389 1001.22 416.319 1000.71 417.569 1000.71H421.299C421.432 1000.71 421.559 1000.66 421.653 1000.56C421.747 1000.47 421.799 1000.34 421.799 1000.21C421.799 1000.08 421.747 999.95 421.653 999.856C421.559 999.762 421.432 999.71 421.299 999.71L421.319 999.73Z" fill="#21252B"/>
<path d="M384.81 984.5C384.81 984.5 405.89 966.65 411.24 963.79C416.59 960.93 425.33 961.7 427.54 969.3C429.98 977.66 421.65 992.56 398.14 984.5L391.05 995.6L384.81 984.5Z" class="change-color-in-svg" fill="#4D61FC"/>
<path opacity="0.2" d="M399.41 979.001C399.41 979.001 400.6 981.001 406.77 976.121C406.77 976.121 404.14 979.581 406.27 980.121C408.4 980.661 414.14 976.581 414.14 976.581C414.14 976.581 411.21 979.481 413.67 980.321C416.13 981.161 420.17 977.591 421.08 975.481C421.99 973.371 424.02 968.421 420.01 966.201C416 963.981 409.12 966.591 404.37 970.411C399.62 974.231 398.25 976.751 399.41 979.001Z" fill="white"/>
<path d="M440.52 961.411C440.801 961.411 441.03 961.182 441.03 960.901C441.03 960.619 440.801 960.391 440.52 960.391C440.238 960.391 440.01 960.619 440.01 960.901C440.01 961.182 440.238 961.411 440.52 961.411Z" fill="white"/>
<path d="M1206.52 966.46C1239 965.4 1314.64 964.11 1287.59 976.57C1282.58 978.845 1277.21 980.246 1271.73 980.71C1262.1 981.58 1244.28 982.71 1232.08 980.54C1228.84 979.931 1225.55 979.699 1222.26 979.85C1217.98 980.09 1213.37 981.08 1213.18 984.21C1213.14 986.301 1212.61 988.354 1211.65 990.21C1207.65 997.34 1196.04 1010.36 1166.73 1002.3C1162.58 1001.19 1158.6 999.503 1154.91 997.3C1146.18 992.02 1136.91 981.9 1169.58 972.3C1181.6 968.805 1194.01 966.843 1206.52 966.46V966.46Z" fill="#F9F9F9"/>
<path d="M932.91 958.62C934.33 956.44 937.72 954.93 941.62 954.54C951.52 953.54 971.45 952.45 961.5 961.03C953.71 967.74 949.5 966.41 947.4 964.26C945.72 962.56 942.55 961.6 939.22 961.81C935.13 962.06 930.9 961.68 932.91 958.62Z" fill="#F9F9F9"/>
<path d="M954.919 585.87C955.263 584.654 955.922 583.551 956.83 582.673C957.738 581.795 958.863 581.173 960.089 580.87C965.969 579.65 977.799 578.29 971.889 588.87C967.269 597.17 964.779 595.52 963.519 592.87C963.138 591.917 962.461 591.112 961.588 590.572C960.715 590.032 959.692 589.786 958.669 589.87C956.239 590.13 953.729 589.65 954.919 585.87Z" fill="#F9F9F9"/>
<path d="M698.32 1001.57C709.85 999.43 743.14 993.87 736.5 1002.3C736.5 1002.3 761.94 1007.57 752.2 1010.58C751.285 1010.85 750.348 1011.04 749.4 1011.14C744.34 1011.74 723.62 1013.83 724.5 1008.14C725 1004.88 724.75 1004.33 724.38 1004.61C723 1005.69 721.424 1006.5 719.74 1006.98C712.61 1008.76 697.55 1011.84 694.53 1006.88C693.21 1004.66 695.14 1002.15 698.32 1001.57Z" fill="#F9F9F9"/>
<path d="M780.019 944.199L779.349 956.189L773.649 953.539L780.019 944.199Z" fill="#21252B"/>
<path d="M789.5 930.41L776.57 949.23L762.2 955.2L753.84 926.65L767.18 906.06L789.5 930.41Z" fill="#F79898"/>
<path d="M781.12 942.61L776.57 949.23L762.2 955.2L753.84 926.65L759.3 918.22L781.12 942.61Z" fill="white"/>
<path d="M743.24 946.199L738.47 954.199L756.99 997.199C760.18 1004.61 765.99 1010.02 772.65 1014.66L779.52 1019.48C788.9 1024.29 795.89 1012.73 795.89 1012.73L786.21 1013.11L769.07 998.619L743.24 946.199Z" fill="black"/>
<path d="M798.68 1009.31C799.508 1007.6 799.831 1005.69 799.611 1003.8C799.392 1001.91 798.639 1000.12 797.44 998.649L785.5 983.929L788.31 965.069C788.726 962.226 788.257 959.325 786.967 956.758C785.678 954.19 783.629 952.082 781.1 950.719V950.719C778.637 949.405 775.836 948.861 773.06 949.156C770.284 949.452 767.661 950.575 765.53 952.379L762.2 955.199L760 927.929C759.96 927.447 759.814 926.98 759.572 926.562C759.33 926.144 758.998 925.784 758.6 925.509L755.85 923.619L743.24 946.199L762.05 989.899C765.246 997.314 770.439 1003.69 777.05 1008.33L783.92 1013.15C785.107 1013.98 786.462 1014.55 787.89 1014.81C789.318 1015.07 790.785 1015.01 792.189 1014.65C793.594 1014.28 794.902 1013.61 796.023 1012.69C797.143 1011.77 798.05 1010.62 798.68 1009.31V1009.31Z" fill="#21252B"/>
<path d="M790.73 990.38C790.73 990.38 789.5 996.47 783.4 995.08C777.3 993.69 764.2 978.42 762.2 955.2C762.2 955.2 769.67 946.79 778.88 949.78C788.09 952.77 789 961.35 788 967.31C787 973.52 785.6 983.9 785.52 983.93L790.73 990.38Z" fill="black"/>
<path d="M786.169 979.409L779.499 977.999C779.377 977.977 779.26 977.931 779.156 977.863C779.052 977.795 778.962 977.707 778.893 977.604C778.823 977.501 778.775 977.385 778.751 977.263C778.727 977.141 778.728 977.015 778.753 976.893C778.778 976.772 778.828 976.656 778.899 976.554C778.97 976.452 779.06 976.365 779.165 976.298C779.27 976.231 779.388 976.187 779.51 976.166C779.633 976.146 779.758 976.15 779.879 976.179L786.449 977.549L786.169 979.409Z" fill="white"/>
<path d="M787.139 972.909H787.079L778.839 971.199C778.599 971.146 778.39 971.001 778.255 970.796C778.121 970.59 778.072 970.34 778.119 970.099C778.143 969.979 778.191 969.865 778.259 969.763C778.328 969.662 778.416 969.575 778.518 969.508C778.62 969.441 778.735 969.395 778.856 969.373C778.976 969.35 779.1 969.353 779.219 969.379L787.419 971.079L787.139 972.909Z" fill="white"/>
<path d="M788.139 966.239L778.359 964.239C778.129 964.179 777.931 964.033 777.805 963.831C777.679 963.629 777.635 963.387 777.683 963.154C777.73 962.921 777.865 962.715 778.06 962.578C778.254 962.441 778.494 962.384 778.729 962.419L788.399 964.419L788.139 966.239Z" fill="white"/>
<path opacity="0.15" d="M767.18 906.06L789.5 930.41L787.12 933.62L771 923.5C770.035 922.79 768.845 922.456 767.652 922.561C766.459 922.666 765.345 923.202 764.52 924.07V924.07L758.68 919.17L767.18 906.06Z" fill="black"/>
<path d="M620.68 715.369V780.699C620.68 790.47 624.561 799.84 631.47 806.749C638.379 813.658 647.749 817.539 657.52 817.539H696.19L720.06 957.419H764.75L763.66 789.349C763.625 783.015 761.656 776.843 758.015 771.66C754.374 766.477 749.236 762.53 743.29 760.349L620.68 715.369Z" fill="#21252B"/>
<path opacity="0.15" d="M730.449 957.419H720.059L696.189 817.539H706.579L730.449 957.419Z" fill="black"/>
<path opacity="0.15" d="M631.06 719.179V780.699C631.06 785.538 632.013 790.329 633.865 794.799C635.717 799.27 638.431 803.331 641.853 806.753C645.275 810.174 649.338 812.887 653.809 814.738C658.279 816.589 663.071 817.54 667.91 817.539H657.52C647.749 817.539 638.379 813.658 631.47 806.749C624.561 799.84 620.68 790.47 620.68 780.699V715.369L631.06 719.179Z" fill="black"/>
<path d="M591.06 659.13L582.99 714.49L628.53 692.79L632.58 661.44L591.06 659.13Z" fill="#F79898"/>
<path d="M590.51 660L595.51 616.15C596.299 608.918 599.408 602.136 604.372 596.818C609.336 591.501 615.889 587.933 623.05 586.65L674 574.75L722.5 565.75L777.16 627.75L778.16 640.75L730.29 664.39L629.12 681L636 640.68L633 662.22L590.51 660Z" class="change-color-in-svg" fill="#4D61FC"/>
<path d="M816.54 744.559L895.94 746.139C916.76 746.559 928.02 770.699 914.94 786.919L799.43 930.409L771.25 898.999L826.25 817.419H736L625.17 729.999L717.53 699.159L816.54 744.559Z" fill="#21252B"/>
<path d="M669.49 753.7L620.67 759.37V722.66L635.52 720.25L669.49 753.7Z" class="change-color-in-svg" fill="#4D61FC"/>
<path opacity="0.15" d="M775.71 817.43L775.53 789.35C775.496 783.016 773.526 776.844 769.885 771.661C766.244 766.477 761.107 762.531 755.16 760.35L632.54 715.35V718L747.41 761.86C759.57 766.33 763.57 776.37 763.66 789.33L763.84 817.41L775.71 817.43Z" fill="black"/>
<path d="M805.62 924.999L776.45 892.179C776.191 891.897 775.873 891.675 775.518 891.531C775.163 891.386 774.781 891.322 774.398 891.343C774.015 891.364 773.642 891.47 773.305 891.652C772.968 891.835 772.676 892.09 772.45 892.399L764.81 902.999C764.475 903.471 764.308 904.042 764.335 904.62C764.362 905.198 764.582 905.751 764.96 906.189L792.82 938.399C793.062 938.676 793.361 938.897 793.695 939.049C794.03 939.2 794.393 939.279 794.76 939.279C795.127 939.279 795.49 939.2 795.825 939.049C796.16 938.897 796.458 938.676 796.7 938.399L805.62 928.349C806.019 927.882 806.238 927.288 806.238 926.674C806.238 926.06 806.019 925.466 805.62 924.999V924.999Z" fill="#21252B"/>
<g opacity="0.5">
<path opacity="0.5" d="M805.62 924.999L776.45 892.179C776.191 891.897 775.873 891.675 775.518 891.531C775.163 891.386 774.781 891.322 774.398 891.343C774.015 891.364 773.642 891.47 773.305 891.652C772.968 891.835 772.676 892.09 772.45 892.399L764.81 902.999C764.475 903.471 764.308 904.042 764.335 904.62C764.362 905.198 764.582 905.751 764.96 906.189L792.82 938.399C793.062 938.676 793.361 938.897 793.695 939.049C794.03 939.2 794.393 939.279 794.76 939.279C795.127 939.279 795.49 939.2 795.825 939.049C796.16 938.897 796.458 938.676 796.7 938.399L805.62 928.349C806.019 927.882 806.238 927.288 806.238 926.674C806.238 926.06 806.019 925.466 805.62 924.999V924.999Z" fill="black"/>
</g>
<path opacity="0.15" d="M630.27 675.279C626.631 680.667 624.089 686.719 622.79 693.089L626.79 693.729L630.27 675.279Z" fill="black"/>
<path d="M822.88 594.54L799.21 565.69C795.218 560.828 789.969 557.154 784.034 555.069C778.099 552.983 771.706 552.565 765.55 553.86L727.15 563.4L726 578.4L777.9 630.3L774.44 606.08L790.58 621.08L822.88 594.54Z" class="change-color-in-svg" fill="#4D61FC"/>
<path d="M632.851 657.939L776.981 623.849L776.631 621.609L633.471 655.699L632.851 657.939Z" fill="white"/>
<path d="M631.891 664.859L776.631 630.769L776.091 628.529L632.311 662.619L631.891 664.859Z" fill="white"/>
<path opacity="0.15" d="M629.12 681L636.94 634.08C637.009 633.655 637.227 633.268 637.555 632.99C637.883 632.711 638.3 632.559 638.73 632.56C638.977 632.561 639.221 632.612 639.447 632.71C639.674 632.808 639.878 632.952 640.047 633.131C640.216 633.311 640.348 633.523 640.432 633.755C640.517 633.987 640.554 634.233 640.54 634.48L637.19 671.78L629.12 681Z" fill="black"/>
<path opacity="0.15" d="M629 731.47L631.06 758.17L621.05 759.47V731.79L629 731.47Z" fill="black"/>
<path opacity="0.15" d="M774.67 607.69C774.514 606.644 774.031 605.674 773.29 604.92V604.92C772.05 603.69 771.1 605.76 771.17 607.51L771 631.45H777.92L775.61 614.15L774.67 607.69Z" fill="black"/>
<path d="M763.98 962.739V1008.27L755.53 1021.29L732.53 1002.53L728.19 961.899L763.98 962.739Z" fill="#F79898"/>
<path d="M763.98 988.909V1008.27L755.53 1021.29L732.53 1002.53L731.12 989.329L763.98 988.909Z" fill="white"/>
<path d="M765.24 957.439H719.62C719.266 957.438 718.915 957.511 718.59 957.651C718.264 957.792 717.972 957.998 717.729 958.257C717.487 958.516 717.301 958.822 717.183 959.156C717.064 959.491 717.016 959.846 717.04 960.199L717.92 972.509C717.967 973.148 718.25 973.747 718.714 974.188C719.178 974.63 719.79 974.884 720.43 974.899L765.22 975.999C765.566 976.009 765.91 975.948 766.232 975.822C766.553 975.696 766.847 975.507 767.094 975.265C767.341 975.024 767.537 974.735 767.671 974.416C767.804 974.097 767.872 973.755 767.87 973.409V959.999C767.869 959.657 767.8 959.319 767.666 959.005C767.533 958.69 767.338 958.405 767.093 958.167C766.848 957.928 766.558 957.741 766.24 957.616C765.922 957.491 765.582 957.431 765.24 957.439V957.439Z" fill="#21252B"/>
<path opacity="0.5" d="M765.24 957.439H719.62C719.266 957.438 718.915 957.511 718.59 957.651C718.264 957.792 717.972 957.998 717.729 958.257C717.487 958.516 717.301 958.822 717.183 959.156C717.064 959.491 717.016 959.846 717.04 960.199L717.92 972.509C717.967 973.148 718.25 973.747 718.714 974.188C719.178 974.63 719.79 974.884 720.43 974.899L765.22 975.999C765.566 976.009 765.91 975.948 766.232 975.822C766.553 975.696 766.847 975.507 767.094 975.265C767.341 975.024 767.537 974.735 767.671 974.416C767.804 974.097 767.872 973.755 767.87 973.409V959.999C767.869 959.657 767.8 959.319 767.666 959.005C767.533 958.69 767.338 958.405 767.093 958.167C766.848 957.928 766.558 957.741 766.24 957.616C765.922 957.491 765.582 957.431 765.24 957.439V957.439Z" fill="black"/>
<path d="M735.71 767.8C748.53 777.65 767.12 782.59 779.71 782.59C811.16 782.59 826.27 748.06 826.27 705.42C826.27 662.78 810.94 628.22 779.48 628.22C770.89 628.22 748.11 632.32 735.7 643.1C735.7 643.1 717.25 660.23 694.06 658.1C689.345 657.556 684.789 656.059 680.67 653.7C675.97 651.15 680.46 649.87 675.07 649.84C644.63 649.68 624.4 674.65 624.4 705.38C624.4 736.11 640.4 760.92 675.97 760.98C681.21 760.98 675.86 759.57 680.52 757.1C683.606 755.449 686.945 754.324 690.4 753.77C714.91 750.06 735.7 767.77 735.7 767.77C735.7 767.77 735.7 767.79 735.71 767.8Z" class="change-color-in-svg" fill="#4D61FC"/>
<g opacity="0.3">
<path opacity="0.3" d="M735.71 767.8C748.53 777.65 767.12 782.59 779.71 782.59C811.16 782.59 826.27 748.06 826.27 705.42C826.27 662.78 810.94 628.2 779.48 628.22C770.87 628.22 748.08 632.33 735.7 643.1C735.7 643.1 717.25 660.23 694.06 658.1C689.345 657.556 684.789 656.059 680.67 653.7C675.97 651.15 680.46 649.87 675.07 649.84C644.63 649.68 624.4 674.65 624.4 705.38C624.4 736.11 640.4 760.92 675.97 760.98C681.21 760.98 675.86 759.57 680.52 757.1C683.606 755.449 686.945 754.324 690.4 753.77C714.91 750.06 735.7 767.77 735.7 767.77C735.7 767.77 735.7 767.79 735.71 767.8Z" fill="black"/>
</g>
<path d="M747.771 767.8C760.591 777.65 768.771 782.62 781.341 782.62C812.801 782.62 838.341 748.06 838.341 705.42C838.341 662.78 812.841 628.22 781.341 628.22C772.751 628.22 757.15 633.74 747.73 643.1C747.73 643.1 729.29 660.23 706.1 658.1C701.385 657.556 696.829 656.059 692.711 653.7C688.05 651.11 682.812 649.735 677.48 649.7C654.81 649.7 636.48 674.6 636.48 705.33C636.48 736.06 654.85 760.97 677.48 760.97C682.751 760.91 687.928 759.564 692.56 757.05C695.646 755.398 698.985 754.272 702.44 753.72C726.95 750.01 747.73 767.72 747.73 767.72C747.73 767.72 747.761 767.79 747.771 767.8Z" class="change-color-in-svg" fill="#4D61FC"/>
<g opacity="0.15">
<path opacity="0.15" d="M747.771 767.8C760.591 777.65 768.771 782.62 781.341 782.62C812.801 782.62 838.341 748.06 838.341 705.42C838.341 662.78 812.841 628.22 781.341 628.22C772.751 628.22 757.15 633.74 747.73 643.1C747.73 643.1 729.29 660.23 706.1 658.1C701.385 657.556 696.829 656.059 692.711 653.7C688.05 651.11 682.812 649.735 677.48 649.7C654.81 649.7 636.48 674.6 636.48 705.33C636.48 736.06 654.85 760.97 677.48 760.97C682.751 760.91 687.928 759.564 692.56 757.05C695.646 755.398 698.985 754.272 702.44 753.72C726.95 750.01 747.73 767.72 747.73 767.72C747.73 767.72 747.761 767.79 747.771 767.8Z" fill="white"/>
</g>
<path d="M515.17 684.16L458.78 680.75C458.269 680.72 457.757 680.793 457.274 680.964C456.791 681.134 456.347 681.4 455.968 681.744C455.589 682.089 455.282 682.506 455.066 682.97C454.85 683.435 454.729 683.938 454.71 684.45L453.82 710.53C453.797 711.044 453.878 711.558 454.059 712.041C454.239 712.523 454.515 712.964 454.87 713.338C455.224 713.711 455.651 714.009 456.123 714.214C456.596 714.419 457.105 714.526 457.62 714.53L514.11 715C515.111 715.005 516.075 714.621 516.797 713.929C517.519 713.236 517.944 712.29 517.98 711.29L518.77 688.16C518.814 687.154 518.461 686.172 517.788 685.423C517.115 684.675 516.175 684.222 515.17 684.16V684.16Z" class="change-color-in-svg" fill="#4D61FC"/>
<path d="M515.17 684.16L458.78 680.75C458.269 680.72 457.757 680.793 457.274 680.964C456.791 681.134 456.347 681.4 455.968 681.744C455.589 682.089 455.282 682.506 455.066 682.97C454.85 683.435 454.729 683.938 454.71 684.45L453.82 710.53C453.797 711.044 453.878 711.558 454.059 712.041C454.239 712.523 454.515 712.964 454.87 713.338C455.224 713.711 455.651 714.009 456.123 714.214C456.596 714.419 457.105 714.526 457.62 714.53L514.11 715C515.111 715.005 516.075 714.621 516.797 713.929C517.519 713.236 517.944 712.29 517.98 711.29L518.77 688.16C518.814 687.154 518.461 686.172 517.788 685.423C517.115 684.675 516.175 684.222 515.17 684.16V684.16Z" fill="black"/>
<path d="M461.07 684.67L460.18 710.75C460.159 711.264 460.241 711.777 460.422 712.259C460.602 712.741 460.878 713.182 461.233 713.555C461.587 713.928 462.013 714.226 462.485 714.431C462.957 714.636 463.465 714.745 463.98 714.75L520.47 715.21C521.471 715.221 522.436 714.84 523.159 714.148C523.882 713.457 524.306 712.51 524.34 711.51L525.14 688.38C525.181 687.373 524.826 686.391 524.151 685.643C523.477 684.895 522.536 684.442 521.53 684.38L465.14 681C464.631 680.97 464.121 681.042 463.64 681.211C463.159 681.38 462.717 681.643 462.338 681.984C461.959 682.325 461.652 682.739 461.435 683.2C461.217 683.661 461.093 684.16 461.07 684.67V684.67ZM475.55 704.15C475.564 703.711 475.665 703.279 475.846 702.88C476.027 702.48 476.285 702.12 476.606 701.82C476.926 701.52 477.302 701.286 477.713 701.131C478.124 700.977 478.561 700.905 479 700.92L512.57 702.08C513.009 702.095 513.44 702.196 513.84 702.378C514.239 702.56 514.599 702.818 514.898 703.139C515.198 703.46 515.431 703.837 515.585 704.248C515.739 704.659 515.81 705.096 515.795 705.535C515.78 705.973 515.679 706.405 515.497 706.804C515.315 707.204 515.056 707.563 514.736 707.863C514.415 708.162 514.038 708.396 513.627 708.549C513.216 708.703 512.779 708.775 512.34 708.76L478.77 707.6C478.332 707.585 477.901 707.485 477.501 707.304C477.102 707.122 476.743 706.864 476.443 706.544C476.144 706.223 475.911 705.847 475.758 705.436C475.605 705.025 475.534 704.588 475.55 704.15V704.15ZM475.96 692.31C475.973 691.871 476.073 691.438 476.253 691.038C476.434 690.638 476.692 690.277 477.013 689.977C477.333 689.676 477.71 689.442 478.122 689.289C478.533 689.135 478.971 689.064 479.41 689.08L513 690.23C513.452 690.226 513.9 690.314 514.317 690.488C514.734 690.662 515.112 690.918 515.427 691.242C515.742 691.566 515.989 691.95 516.152 692.371C516.315 692.793 516.391 693.243 516.375 693.695C516.36 694.146 516.253 694.59 516.062 694.999C515.87 695.409 515.598 695.775 515.261 696.076C514.924 696.378 514.53 696.608 514.102 696.753C513.674 696.898 513.221 696.954 512.77 696.92L479.2 695.76C478.319 695.726 477.486 695.344 476.886 694.697C476.286 694.05 475.968 693.191 476 692.31H475.96Z" fill="#21252B"/>
<path d="M804.13 730.37H814.42V689.56H804.13V730.37Z" fill="black"/>
<path d="M715.65 738.31C732.732 738.31 746.58 724.462 746.58 707.38C746.58 690.298 732.732 676.45 715.65 676.45C698.568 676.45 684.72 690.298 684.72 707.38C684.72 724.462 698.568 738.31 715.65 738.31Z" class="change-color-in-svg" fill="#4D61FC"/>
<path d="M516.79 710.85L699.86 718.07L700.35 694.961L516.79 688.23V710.85Z" class="change-color-in-svg" fill="#4D61FC"/>
<path d="M516.79 710.85L700.96 719.641L700.35 694.961L516.79 688.23V710.85Z" fill="#21252B"/>
<path d="M715.651 727.47C726.746 727.47 735.741 718.475 735.741 707.38C735.741 696.285 726.746 687.29 715.651 687.29C704.555 687.29 695.561 696.285 695.561 707.38C695.561 718.475 704.555 727.47 715.651 727.47Z" fill="black"/>
<path d="M506.08 671.439L504.22 725.359" stroke="black" stroke-width="1.67" stroke-miterlimit="10"/>
<path d="M488.3 670.83L486.45 724.75" stroke="black" stroke-width="1.67" stroke-miterlimit="10"/>
<path d="M504.22 728.35C505.872 728.35 507.21 727.011 507.21 725.36C507.21 723.709 505.872 722.37 504.22 722.37C502.569 722.37 501.23 723.709 501.23 725.36C501.23 727.011 502.569 728.35 504.22 728.35Z" fill="black"/>
<path d="M486.45 727.74C488.101 727.74 489.44 726.401 489.44 724.75C489.44 723.098 488.101 721.76 486.45 721.76C484.799 721.76 483.46 723.098 483.46 724.75C483.46 726.401 484.799 727.74 486.45 727.74Z" fill="black"/>
<path d="M506.08 674.43C507.731 674.43 509.07 673.092 509.07 671.44C509.07 669.789 507.731 668.45 506.08 668.45C504.429 668.45 503.09 669.789 503.09 671.44C503.09 673.092 504.429 674.43 506.08 674.43Z" fill="black"/>
<path d="M488.3 673.82C489.951 673.82 491.29 672.481 491.29 670.83C491.29 669.179 489.951 667.84 488.3 667.84C486.648 667.84 485.31 669.179 485.31 670.83C485.31 672.481 486.648 673.82 488.3 673.82Z" fill="black"/>
<path d="M804.12 708.401L521.08 697.23" stroke="black" stroke-width="1.67" stroke-miterlimit="10"/>
<path d="M804.12 714.32L521.08 702.271" stroke="black" stroke-width="1.67" stroke-miterlimit="10"/>
<path d="M804.12 720.25L521.08 706.23L521.27 692.79L804.12 702.47" stroke="black" stroke-width="1.67" stroke-miterlimit="10"/>
<path d="M763.98 1000.88L769.781 1010.06L763.98 1010.74V1000.88Z" fill="#21252B"/>
<path d="M734.87 1024.61L735.48 1033.9L775 1058.82C781.81 1063.11 789.68 1064.25 797.74 1064.33L806.12 1064.41C816.55 1063.06 815.76 1049.61 815.76 1049.61L808.09 1056.49L784.72 1054.49L734.87 1024.61Z" fill="black"/>
<path d="M816.1 1045.18C815.816 1043.31 815.007 1041.56 813.768 1040.13C812.529 1038.7 810.911 1037.66 809.1 1037.11L790.97 1031.75L782.63 1014.65C781.374 1012.08 779.356 1009.96 776.85 1008.58C774.345 1007.2 771.475 1006.62 768.63 1006.93V1006.93C765.862 1007.24 763.251 1008.37 761.134 1010.19C759.018 1012 757.494 1014.4 756.76 1017.09L755.61 1021.29L738.36 1000.14C738.058 999.765 737.676 999.463 737.241 999.255C736.807 999.048 736.332 998.94 735.85 998.939H732.23L734.951 1024.61L775.1 1049.91C781.913 1054.2 789.787 1056.52 797.841 1056.59L806.22 1056.67C807.659 1056.67 809.08 1056.36 810.387 1055.76C811.694 1055.16 812.857 1054.28 813.794 1053.19C814.732 1052.1 815.424 1050.82 815.822 1049.44C816.22 1048.05 816.315 1046.6 816.1 1045.18V1045.18Z" fill="#21252B"/>
<path d="M798.87 1034.1C798.87 1034.1 801.3 1039.8 795.5 1042.1C789.7 1044.4 770.31 1039.26 755.5 1021.29C755.5 1021.29 756.81 1009.86 766.16 1007.41C775.51 1004.96 781.4 1011.15 783.55 1016.68C784.46 1019.02 785.94 1021.61 787.09 1023.94C789.2 1028.24 790.9 1031.75 790.9 1031.75L798.87 1034.1Z" fill="black"/>
<path d="M781.59 1030.39C781.382 1030.36 781.188 1030.27 781.035 1030.13C780.881 1029.99 780.777 1029.8 780.736 1029.59C780.695 1029.39 780.72 1029.17 780.807 1028.98C780.894 1028.79 781.038 1028.63 781.22 1028.53L787.98 1025.7L788.83 1027.44L781.97 1030.31C781.85 1030.36 781.721 1030.39 781.59 1030.39Z" fill="white"/>
<path d="M781.59 1030.39C781.382 1030.36 781.188 1030.27 781.035 1030.13C780.881 1029.99 780.777 1029.8 780.736 1029.59C780.695 1029.39 780.72 1029.17 780.807 1028.98C780.894 1028.79 781.038 1028.63 781.22 1028.53L787.98 1025.7L788.83 1027.44L781.97 1030.31C781.85 1030.36 781.721 1030.39 781.59 1030.39Z" fill="white"/>
<path d="M777.191 1025.13C776.985 1025.1 776.793 1025.01 776.641 1024.87C776.489 1024.73 776.385 1024.54 776.344 1024.34C776.302 1024.14 776.324 1023.93 776.408 1023.74C776.492 1023.55 776.633 1023.39 776.811 1023.28L785.021 1019.84L785.901 1021.56L777.561 1025.06C777.443 1025.11 777.318 1025.13 777.191 1025.13Z" fill="white"/>
<path d="M777.191 1025.13C776.985 1025.1 776.793 1025.01 776.641 1024.87C776.489 1024.73 776.385 1024.54 776.344 1024.34C776.302 1024.14 776.324 1023.93 776.408 1023.74C776.492 1023.55 776.633 1023.39 776.811 1023.28L785.021 1019.84L785.901 1021.56L777.561 1025.06C777.443 1025.11 777.318 1025.13 777.191 1025.13Z" fill="white"/>
<path d="M772.171 1020.13C772.297 1020.13 772.423 1020.11 772.541 1020.06L783.071 1015.65L782.201 1013.92L771.801 1018.27C771.568 1018.38 771.385 1018.57 771.288 1018.8C771.192 1019.04 771.189 1019.3 771.281 1019.54C771.358 1019.71 771.483 1019.86 771.64 1019.96C771.798 1020.07 771.982 1020.13 772.171 1020.13V1020.13Z" fill="white"/>
<path d="M781.64 693.089C780.688 693.514 779.789 694.047 778.96 694.679V694.679C777.596 695.585 776.3 696.587 775.08 697.679C770.95 701.359 766.08 709.169 761.97 711.969C757.86 714.769 751.78 721.909 751.7 721.969L745.11 725.179C744.94 725.26 744.756 725.307 744.568 725.316C744.38 725.326 744.192 725.298 744.014 725.235C743.656 725.107 743.363 724.843 743.2 724.499C743.037 724.156 743.017 723.762 743.145 723.404C743.272 723.045 743.537 722.752 743.88 722.589L748.44 720.009L738.44 725.099C738.19 725.22 737.917 725.287 737.64 725.296C737.362 725.305 737.086 725.257 736.828 725.153C736.57 725.05 736.337 724.894 736.143 724.695C735.948 724.496 735.798 724.259 735.7 723.999C735.558 723.564 735.562 723.095 735.709 722.662C735.857 722.229 736.142 721.856 736.52 721.599L743.9 716.239L732.9 723.959C732.286 724.406 731.533 724.62 730.776 724.561C730.019 724.502 729.308 724.175 728.77 723.639C728.492 723.343 728.275 722.995 728.132 722.615C727.989 722.236 727.922 721.831 727.935 721.425C727.948 721.019 728.04 720.62 728.208 720.25C728.375 719.88 728.614 719.547 728.91 719.269L736.63 712.099L746.4 699.999C746.4 699.999 746.4 699.919 746.4 699.949L736 707.859L726.95 711.419C726.071 711.785 725.083 711.787 724.202 711.425C723.321 711.063 722.619 710.367 722.25 709.489C721.964 708.711 721.968 707.856 722.262 707.08C722.556 706.305 723.12 705.662 723.85 705.269L733.26 700.209L745.04 690.209C745.809 689.712 746.432 689.021 746.847 688.205C747.262 687.389 747.453 686.478 747.403 685.564C747.352 684.65 747.06 683.766 746.558 683.001C746.055 682.237 745.359 681.618 744.54 681.209L738.65 678.209L733.33 677.119C732.519 676.954 731.752 676.621 731.078 676.14C730.404 675.66 729.838 675.044 729.417 674.332C728.996 673.619 728.729 672.827 728.633 672.005C728.537 671.183 728.614 670.35 728.86 669.559L747.07 669.939C748.824 669.985 750.558 670.323 752.2 670.939L754.2 671.649C759.475 673.539 765.06 674.418 770.66 674.239V674.309L805.52 636.079V636.029L790.61 621.099V621.049L822.31 594.569L850.01 626.899C851.322 628.417 852.299 630.194 852.879 632.114C853.459 634.034 853.629 636.054 853.377 638.044C853.125 640.034 852.458 641.949 851.418 643.664C850.378 645.379 848.988 646.856 847.34 647.999L781.74 692.999L781.64 693.049V693.089Z" fill="#F79898"/>
<path opacity="0.15" d="M826.04 817.41L843.5 790.39L811.3 817.41H826.04Z" fill="black"/>
<path opacity="0.15" d="M751.85 706.85L743.9 716.27L737.7 720.62" stroke="black" stroke-linecap="round" stroke-linejoin="round"/>
<path opacity="0.15" d="M758.07 711.189L748.43 720.079L743.87 722.659" stroke="black" stroke-linecap="round" stroke-linejoin="round"/>
<path d="M649.22 724L599.76 741.67C597.583 742.345 595.277 742.5 593.029 742.12C590.781 741.741 588.653 740.838 586.818 739.486C584.983 738.133 583.491 736.368 582.463 734.333C581.435 732.298 580.9 730.05 580.9 727.77L582.21 714L632.88 716.79L649.22 724Z" fill="#F79898"/>
<path opacity="0.15" d="M632.88 716.77L644.82 722.07L646.42 724.87L643 726.26C643 726.26 636 728.06 627.56 721.76C626.369 720.85 625.402 719.68 624.73 718.34L619.94 715.64L632.88 716.77Z" fill="black"/>
<path d="M655.85 723.62L658.24 719.13L657.91 710.51L657.01 706.51C656.949 706.243 656.819 705.996 656.633 705.794C656.447 705.593 656.212 705.443 655.95 705.36V705.36C655.7 705.284 655.435 705.272 655.18 705.325C654.924 705.378 654.685 705.494 654.486 705.664C654.287 705.833 654.134 706.049 654.04 706.293C653.947 706.537 653.916 706.801 653.95 707.06L654.26 709.34L652.13 718.76L654.26 709.34L653.26 702.14C653.216 701.81 653.087 701.497 652.885 701.233C652.684 700.968 652.417 700.76 652.11 700.63C651.843 700.519 651.555 700.47 651.266 700.486C650.977 700.503 650.696 700.584 650.443 700.725C650.19 700.865 649.972 701.061 649.805 701.297C649.639 701.533 649.528 701.804 649.48 702.09L648.66 707.16L645.05 715.89L648.66 707.16L650.22 697.22C650.304 696.714 650.208 696.195 649.951 695.752C649.694 695.309 649.291 694.968 648.81 694.79V694.79C648.328 694.604 647.795 694.593 647.306 694.76C646.816 694.926 646.4 695.259 646.13 695.7L641.13 703.7L637 715.82L641.19 703.74L645.08 697.41C645.248 697.138 645.36 696.836 645.408 696.52C645.456 696.205 645.44 695.883 645.36 695.574C645.281 695.265 645.14 694.975 644.946 694.722C644.752 694.468 644.508 694.257 644.23 694.1V694.1C643.772 693.838 643.239 693.735 642.715 693.81C642.192 693.884 641.708 694.13 641.34 694.51L633.87 702.24L629.5 712.74L627.79 718C627.673 718.36 627.64 718.741 627.694 719.116C627.748 719.49 627.887 719.848 628.1 720.16L628.46 720.7C628.755 721.132 629.142 721.494 629.593 721.759C630.045 722.023 630.549 722.184 631.07 722.23L633.07 722.41C633.477 722.449 633.875 722.55 634.25 722.71L638.4 724.48C639.079 724.766 639.823 724.859 640.55 724.75L641.85 724.54C642.415 724.451 642.992 724.486 643.541 724.643C644.09 724.8 644.599 725.076 645.03 725.45C645.454 725.821 645.954 726.096 646.494 726.255C647.035 726.414 647.603 726.453 648.16 726.37L650.93 725.97L652.93 725.71C653.546 725.613 654.131 725.374 654.638 725.011C655.145 724.648 655.56 724.172 655.85 723.62Z" fill="#F79898"/>
<path opacity="0.15" d="M652.131 718.76L654.261 709.34L653.951 707.06" stroke="black" stroke-linecap="round" stroke-linejoin="round"/>
<path opacity="0.15" d="M649.5 702.09L648.68 707.16L645.07 715.89" stroke="black" stroke-linecap="round" stroke-linejoin="round"/>
<path opacity="0.15" d="M645.081 697.41L641.191 703.74L638.011 712.91" stroke="black" stroke-linecap="round" stroke-linejoin="round"/>
<path d="M628.101 720.11L623.881 715.96L629.001 716.16L628.101 720.11Z" fill="#F79898"/>
<path opacity="0.15" d="M623.88 715.96L581.71 719.2L582.21 713.979L623.88 715.96Z" fill="black"/>
<path d="M686.86 457.729C670.86 456.329 663.96 473.729 662.07 495.389C660.18 517.049 663.84 530.089 679.82 531.489C695.8 532.889 709.82 521.359 711.75 499.739C713.68 478.119 702.84 459.129 686.86 457.729Z" fill="#21252B"/>
<path d="M735.61 510.48C735.61 510.48 686.61 473.38 681.06 513.01L679.39 523.24L669.1 581.11C668.96 582.63 729.97 576.24 729.89 574.31L729.27 549.14C730.229 546.198 730.839 543.154 731.09 540.07C733 524.48 735.61 510.48 735.61 510.48Z" fill="#F79898"/>
<path d="M729.85 575.33C730.65 566.26 718.13 557.74 701.85 556.33C685.57 554.92 669.1 571.64 668.3 580.71C667.5 589.78 677.53 596.86 695.98 596.86C712.32 596.85 729.06 584.41 729.85 575.33Z" fill="#F79898"/>
<path d="M741.511 513.37C751.242 513.37 759.131 505.481 759.131 495.75C759.131 486.019 751.242 478.13 741.511 478.13C731.779 478.13 723.891 486.019 723.891 495.75C723.891 505.481 731.779 513.37 741.511 513.37Z" fill="#21252B"/>
<path d="M743.92 482.889C743.92 482.889 755.58 561.819 715.45 563.559C680.72 565.129 681.59 511.259 681.59 511.259L686.29 476.689L743.92 482.889Z" fill="#F79898"/>
<path d="M753.303 471.957C754.383 459.628 742.651 448.527 727.098 447.164C711.544 445.8 698.059 454.69 696.979 467.019C695.898 479.349 707.63 490.449 723.183 491.813C738.737 493.176 752.222 484.286 753.303 471.957Z" fill="#21252B"/>
<path d="M689.3 458.32C679.56 457.47 670.79 466.74 669.71 479.02C668.63 491.3 675.43 504.62 685.17 505.47C694.91 506.32 703.91 494.4 705 482.11C706.09 469.82 699 459.18 689.3 458.32Z" fill="#21252B"/>
<path opacity="0.15" d="M679.17 525.78C679.17 525.78 682.45 526.33 684.35 525.08L678 533.24L679.17 525.78Z" fill="black"/>
<path d="M685.86 505.42C685.86 505.42 680.97 497.88 673.05 500.52C664.05 503.57 664.14 523.31 678.66 525.74C686.23 527.04 685.1 522.46 684.35 516.37C684.535 512.683 685.041 509.019 685.86 505.42V505.42Z" fill="#F79898"/>
<path opacity="0.3" d="M672.23 505.57C672.858 505.162 673.561 504.883 674.297 504.749C675.034 504.615 675.789 504.629 676.52 504.79C677.219 505.038 677.855 505.435 678.385 505.953C678.915 506.471 679.326 507.097 679.59 507.79C680.388 509.496 680.709 511.386 680.52 513.26V514.92C680.513 515.041 680.481 515.159 680.426 515.267C680.371 515.375 680.294 515.47 680.199 515.546C680.105 515.622 679.996 515.678 679.879 515.71C679.762 515.741 679.64 515.748 679.52 515.73C679.399 515.724 679.28 515.693 679.171 515.639C679.063 515.584 678.967 515.507 678.891 515.412C678.814 515.318 678.758 515.208 678.727 515.09C678.696 514.973 678.691 514.85 678.71 514.73V513.06C678.795 511.507 678.539 509.954 677.96 508.51C677.554 507.601 676.848 506.86 675.96 506.41C674.972 506.243 673.957 506.427 673.09 506.93C672.873 507.029 672.628 507.047 672.399 506.981C672.17 506.915 671.972 506.769 671.84 506.57C671.64 506.42 671.81 505.92 672.23 505.57Z" fill="black"/>
<path opacity="0.15" d="M729.56 570.469L729.48 558.469C724.87 562.169 717.59 564.719 706.76 562.629C701.446 561.55 696.388 559.462 691.86 556.479C691.32 556.069 690.97 555.999 690.59 556.259C690.468 556.403 690.408 556.589 690.423 556.776C690.438 556.964 690.527 557.137 690.67 557.259C692.11 558.719 697.76 562.199 706.93 564.359C719.13 573.839 729.56 570.469 729.56 570.469Z" fill="black"/>
<path d="M710.49 522.659C712.252 522.659 713.68 521.231 713.68 519.469C713.68 517.707 712.252 516.279 710.49 516.279C708.728 516.279 707.3 517.707 707.3 519.469C707.3 521.231 708.728 522.659 710.49 522.659Z" fill="#21252B"/>
<path d="M709.39 520.909C709.743 520.909 710.03 520.622 710.03 520.269C710.03 519.915 709.743 519.629 709.39 519.629C709.037 519.629 708.75 519.915 708.75 520.269C708.75 520.622 709.037 520.909 709.39 520.909Z" fill="white"/>
<path d="M735.66 524.999C737.422 524.999 738.85 523.571 738.85 521.809C738.85 520.047 737.422 518.619 735.66 518.619C733.898 518.619 732.47 520.047 732.47 521.809C732.47 523.571 733.898 524.999 735.66 524.999Z" fill="#21252B"/>
<path d="M735.61 524.059C735.963 524.059 736.25 523.773 736.25 523.419C736.25 523.066 735.963 522.779 735.61 522.779C735.256 522.779 734.97 523.066 734.97 523.419C734.97 523.773 735.256 524.059 735.61 524.059Z" fill="white"/>
<path d="M747 510.759L733.11 509.929L731.2 509.809L719.1 509.079H718.97L703.3 508.129C702.697 508.091 702.092 508.173 701.521 508.369C700.949 508.565 700.422 508.872 699.97 509.273C699.517 509.673 699.148 510.159 698.884 510.702C698.62 511.246 698.465 511.836 698.43 512.439L698.22 516.009C698.121 517.651 698.347 519.296 698.884 520.85C699.421 522.404 700.26 523.837 701.351 525.068C702.442 526.298 703.764 527.301 705.243 528.021C706.722 528.74 708.328 529.161 709.97 529.259C711.611 529.358 713.256 529.132 714.81 528.595C716.365 528.057 717.798 527.219 719.028 526.128C720.259 525.037 721.262 523.714 721.981 522.236C722.7 520.757 723.121 519.151 723.22 517.509L723.44 513.949C723.494 512.923 723.194 511.91 722.59 511.079L727.43 511.369C726.769 512.135 726.394 513.107 726.37 514.119L726.15 517.689C726.051 519.331 726.277 520.976 726.814 522.53C727.351 524.084 728.19 525.517 729.281 526.748C730.372 527.978 731.694 528.981 733.173 529.701C734.652 530.42 736.258 530.841 737.9 530.939C739.541 531.038 741.186 530.812 742.74 530.275C744.295 529.737 745.728 528.899 746.958 527.808C748.189 526.717 749.192 525.394 749.911 523.916C750.63 522.437 751.051 520.831 751.15 519.189L751.36 515.629C751.399 515.022 751.317 514.413 751.118 513.838C750.919 513.263 750.607 512.733 750.202 512.279C749.796 511.826 749.303 511.458 748.754 511.197C748.204 510.936 747.608 510.787 747 510.759V510.759ZM721.62 513.839L721.41 517.409C721.256 520.232 719.987 522.879 717.882 524.766C715.777 526.654 713.008 527.628 710.185 527.474C707.362 527.32 704.715 526.051 702.827 523.946C700.94 521.841 699.966 519.072 700.12 516.249L700.34 512.689C700.389 511.942 700.732 511.244 701.294 510.749C701.856 510.254 702.592 510.003 703.34 510.049L719.01 510.989H719.14C719.838 511.053 720.483 511.386 720.939 511.919C721.394 512.451 721.624 513.14 721.58 513.839H721.62ZM749.31 519.089C749.156 521.915 747.886 524.564 745.779 526.454C743.672 528.343 740.901 529.318 738.075 529.164C735.249 529.01 732.6 527.74 730.71 525.633C728.821 523.526 727.846 520.755 728 517.929L728.21 514.369C728.261 513.623 728.605 512.927 729.167 512.432C729.729 511.938 730.463 511.685 731.21 511.729L733.13 511.849L747.01 512.679C747.756 512.731 748.452 513.074 748.947 513.636C749.441 514.198 749.694 514.932 749.65 515.679L749.31 519.089Z" fill="#21252B"/>
<g opacity="0.3">
<path opacity="0.3" d="M723.201 531.469L719.451 531.25C719.239 531.235 719.04 531.144 718.89 530.993C718.741 530.842 718.652 530.641 718.641 530.43C718.655 530.22 718.745 530.024 718.894 529.876C719.043 529.729 719.241 529.641 719.451 529.63L723.201 529.84C723.426 529.854 723.653 529.824 723.867 529.751C724.081 529.678 724.279 529.563 724.449 529.414C724.619 529.264 724.758 529.082 724.858 528.879C724.957 528.676 725.016 528.455 725.031 528.229C725.045 528.004 725.015 527.777 724.942 527.563C724.869 527.349 724.754 527.151 724.605 526.981C724.455 526.811 724.274 526.672 724.07 526.573C723.867 526.473 723.646 526.414 723.421 526.4C723.22 526.377 723.035 526.282 722.9 526.131C722.765 525.981 722.691 525.786 722.691 525.585C722.691 525.383 722.765 525.188 722.9 525.038C723.035 524.887 723.22 524.792 723.421 524.77C724.294 524.814 725.115 525.203 725.702 525.852C726.289 526.5 726.594 527.356 726.551 528.229C726.575 528.671 726.505 529.113 726.344 529.524C726.182 529.936 725.935 530.308 725.617 530.616C725.299 530.923 724.919 531.158 724.502 531.306C724.085 531.453 723.641 531.509 723.201 531.469Z" fill="black"/>
</g>
<path opacity="0.15" d="M795.5 618.01L809.04 632.6L805.58 636.06L790.59 621.07L795.5 618.01Z" fill="black"/>
<path opacity="0.15" d="M730.45 957.42L732.16 975.18L720.44 974.88C719.8 974.864 719.188 974.611 718.724 974.169C718.26 973.727 717.977 973.129 717.93 972.49L717 960.18C716.964 959.665 717.084 959.151 717.345 958.705C717.605 958.259 717.994 957.902 718.46 957.68L730.16 957.42H730.45Z" fill="black"/>
<path d="M690.41 504.729L685.63 512.659V504.579L690.41 504.729Z" fill="#21252B"/>
<path d="M722.67 543.139L709 539.939C708.93 541.504 709.401 543.045 710.333 544.303C711.266 545.562 712.603 546.461 714.12 546.849C720.63 548.509 722.67 543.139 722.67 543.139Z" fill="white"/>
</svg>